<?xml version="1.0" standalone="no"?>
<!DOCTYPE svg PUBLIC "-//W3C//DTD SVG 20010904//EN"
 "http://www.w3.org/TR/2001/REC-SVG-20010904/DTD/svg10.dtd">
<svg version="1.0" xmlns="http://www.w3.org/2000/svg"
 width="294.000000pt" height="239.000000pt" viewBox="0 0 294.000000 239.000000"
 preserveAspectRatio="xMidYMid meet">

<g transform="translate(0.000000,239.000000) scale(0.100000,-0.100000)"
fill="#000000" stroke="none">
<path d="M670 1999 c-115 -13 -278 -48 -331 -70 -57 -25 -66 -42 -102 -209
-36 -162 -39 -230 -9 -230 9 0 67 35 128 78 136 95 230 143 286 145 66 3 69
-15 30 -251 -51 -312 -56 -371 -56 -652 -1 -275 10 -384 42 -450 l17 -35 171
-3 c140 -2 173 0 183 12 10 11 5 44 -23 158 -58 233 -70 347 -70 648 0 210 3
284 17 359 20 107 51 185 81 206 49 35 131 2 229 -92 l68 -66 24 33 c31 43 82
165 91 218 9 57 -11 84 -91 122 -148 71 -449 105 -685 79z"/>
<path d="M1975 1999 c-115 -19 -196 -61 -273 -143 -168 -177 -161 -469 15
-625 73 -65 175 -118 343 -176 149 -52 200 -78 247 -127 57 -59 67 -121 33
-188 -77 -151 -413 -159 -554 -14 -54 56 -82 108 -106 199 -12 44 -23 86 -26
94 -7 23 -61 -35 -91 -99 -35 -73 -43 -199 -18 -286 45 -156 181 -274 371
-320 93 -23 277 -23 364 0 269 72 430 302 393 561 -30 209 -180 349 -493 460
-154 55 -203 79 -249 120 -104 94 -67 230 75 271 120 34 232 1 348 -105 38
-33 74 -61 82 -61 37 0 154 177 154 235 0 34 -67 92 -155 136 -133 66 -314 93
-460 68z"/>
</g>
</svg>
